<?xml version="1.0" encoding="utf-8"?><!-- Uploaded to: SVG Repo, www.svgrepo.com, Generator: SVG Repo Mixer Tools -->
<svg fill="#000000" width="800px" height="800px" viewBox="0 0 24 24" id="airbnb-circle" data-name="Line Color" xmlns="http://www.w3.org/2000/svg" class="icon line-color"><path id="secondary" d="M13,13h0a2.19,2.19,0,0,1-1,1.87l-.75.46A4.48,4.48,0,0,1,8.85,16h0A1.85,1.85,0,0,1,7,14.15H7a1.82,1.82,0,0,1,.24-.91l2.9-5.15A2.14,2.14,0,0,1,12,7h0a2.14,2.14,0,0,1,1.86,1.09l2.9,5.15a1.82,1.82,0,0,1,.24.91h0A1.85,1.85,0,0,1,15.15,16h0a4.48,4.48,0,0,1-2.36-.67L12,14.87A2.19,2.19,0,0,1,11,13h0a1,1,0,0,1,1-1h0A1,1,0,0,1,13,13Z" style="fill: none; stroke: rgb(44, 169, 188); stroke-linecap: round; stroke-linejoin: round; stroke-width: 2;"></path><circle id="primary" cx="12" cy="12" r="9" style="fill: none; stroke: rgb(0, 0, 0); stroke-linecap: round; stroke-linejoin: round; stroke-width: 2;"></circle></svg>